<mxfile host="app.diagrams.net" modified="2022-04-16T20:02:41.124Z" agent="5.0 (Windows NT 10.0; Win64; x64) AppleWebKit/537.36 (KHTML, like Gecko) Chrome/100.0.4896.88 Safari/537.36" etag="-DVegKFEj0YoxsGeTXvS" version="17.4.5" type="github">
  <diagram id="45UYVZEAV0874mm2U0Gk" name="Page-1">
    <mxGraphModel dx="868" dy="482" grid="1" gridSize="10" guides="1" tooltips="1" connect="1" arrows="1" fold="1" page="1" pageScale="1" pageWidth="850" pageHeight="1100" math="0" shadow="0">
      <root>
        <mxCell id="0" />
        <mxCell id="1" parent="0" />
        <mxCell id="Xbo95g95i6EqVmZTo03X-3" style="edgeStyle=orthogonalEdgeStyle;rounded=0;orthogonalLoop=1;jettySize=auto;html=1;entryX=0.5;entryY=1;entryDx=0;entryDy=0;fontSize=11;" edge="1" parent="1" source="Xbo95g95i6EqVmZTo03X-1" target="Xbo95g95i6EqVmZTo03X-2">
          <mxGeometry relative="1" as="geometry" />
        </mxCell>
        <mxCell id="Xbo95g95i6EqVmZTo03X-1" value="Airplane Controller&lt;br&gt;Global Control" style="rounded=0;whiteSpace=wrap;html=1;" vertex="1" parent="1">
          <mxGeometry x="360" y="270" width="120" height="60" as="geometry" />
        </mxCell>
        <mxCell id="Xbo95g95i6EqVmZTo03X-2" value="IP_BaseRigidBody_Controller" style="rounded=0;whiteSpace=wrap;html=1;" vertex="1" parent="1">
          <mxGeometry x="335" y="100" width="170" height="60" as="geometry" />
        </mxCell>
        <mxCell id="Xbo95g95i6EqVmZTo03X-5" style="edgeStyle=orthogonalEdgeStyle;rounded=0;orthogonalLoop=1;jettySize=auto;html=1;entryX=0;entryY=0.5;entryDx=0;entryDy=0;fontSize=11;" edge="1" parent="1" source="Xbo95g95i6EqVmZTo03X-4" target="Xbo95g95i6EqVmZTo03X-1">
          <mxGeometry relative="1" as="geometry" />
        </mxCell>
        <mxCell id="Xbo95g95i6EqVmZTo03X-4" value="Airplane Input" style="rounded=0;whiteSpace=wrap;html=1;fontSize=11;fillColor=#d5e8d4;strokeColor=#82b366;" vertex="1" parent="1">
          <mxGeometry x="110" y="270" width="120" height="60" as="geometry" />
        </mxCell>
        <mxCell id="Xbo95g95i6EqVmZTo03X-6" value="IP_Airplane_Menus" style="rounded=0;whiteSpace=wrap;html=1;fontSize=11;" vertex="1" parent="1">
          <mxGeometry x="620" y="270" width="120" height="60" as="geometry" />
        </mxCell>
      </root>
    </mxGraphModel>
  </diagram>
</mxfile>
